<svg xmlns="http://www.w3.org/2000/svg" viewBox="0 0 343.2 344.3"><path d="M288.6,215.1c-12-12.5-27.6-12.5-40.1,0c-9.4,9.4-18.7,18.7-28.1,28.1c-2.6,2.6-4.7,3.1-7.8,1.6 c-5.7-3.6-12.5-6.2-18.2-9.9c-27.1-17.2-50-39.1-70.3-64c-9.9-12.5-18.7-25.5-25-40.6c-1-3.1-1-4.7,1.6-7.3 c9.9-8.9,18.7-18.2,28.1-27.6c13-13,13-28.1,0-41.1c-7.8-7.8-15.1-15.1-22.4-22.4C98.6,24.1,91.3,16.3,83.5,9C71.5-3,55.9-3,43.4,9 C34,18.4,24.7,27.7,15.3,37.1C6.4,46,1.8,56.4,0.7,68.3c-1.6,19.3,3.1,38,9.9,56.2c14.1,38,35.4,70.8,60.9,101.5 c34.9,41.7,76.5,74.5,125,97.9c21.9,10.4,44.3,18.7,68.2,20.3c17.2,1,31.8-3.6,43.7-16.7c7.8-9.4,17.2-17.2,25.5-26 c12.5-13,12.5-28.6,0-41.1C318.8,245.3,303.7,230.2,288.6,215.1z"/></svg>